Coordinates
version=1
nRows=12
nColumns=24
inDegrees=yes

Units are S.I. units (second, meters, Newtons, ...)
Angles are in degrees.

endheader
time	pelvis_tilt	pelvis_list	pelvis_rotation	pelvis_tx	pelvis_ty	pelvis_tz	hip_flexion_r	hip_adduction_r	hip_rotation_r	knee_angle_r	ankle_angle_r	subtalar_angle_r	mtp_angle_r	hip_flexion_l	hip_adduction_l	hip_rotation_l	knee_angle_l	ankle_angle_l	subtalar_angle_l	mtp_angle_l	lumbar_extension	lumbar_bending	lumbar_rotation
      4.68000000	     59.77061539	     -1.54325653	     -4.51515160	      0.83171900	      1.06413454	     -0.22850959	     14.48291983	     -8.96797290	      9.21965212	    -65.08580365	     12.46890575	     28.98257992	      0.00000000	     10.12113643	     -4.90741561	     -7.91046393	    -65.90897125	      0.29488033	     -2.55228566	      0.00000000	      0.00000000	      0.00000000	      0.00000000
      4.69000000	     59.77108850	     -1.54020826	     -4.51645881	      0.83172037	      1.06413182	     -0.22851397	     14.48388397	     -8.96541004	      9.20925962	    -65.10935243	     12.47507336	     28.96845445	      0.00000000	     10.12100359	     -4.90508674	     -7.91013271	    -65.91940713	      0.29488213	     -2.55365936	      0.00000000	      0.00000000	      0.00000000	      0.00000000
      4.70000000	     59.77259587	     -1.53643478	     -4.51756281	      0.83172002	      1.06412665	     -0.22851642	     14.48407568	     -8.96229133	      9.19723674	    -65.13779342	     12.48157922	     28.94654428	      0.00000000	     10.12018670	     -4.90296671	     -7.90845042	    -65.93076645	      0.29555284	     -2.55354769	      0.00000000	      0.00000000	      0.00000000	      0.00000000
      4.71000000	     59.77421351	     -1.53257835	     -4.51846963	      0.83171970	      1.06411900	     -0.22851932	     14.48389268	     -8.95882467	      9.18386830	    -65.17009450	     12.48682192	     28.91820361	      0.00000000	     10.11901651	     -4.90155498	     -7.90572150	    -65.94247797	      0.29653072	     -2.55336808	      0.00000000	      0.00000000	      0.00000000	      0.00000000
      4.72000000	     59.77539614	     -1.52929708	     -4.51915842	      0.83171904	      1.06411258	     -0.22852345	     14.48350411	     -8.95547268	      9.16983216	    -65.20491303	     12.48913243	     28.88634291	      0.00000000	     10.11755809	     -4.90122490	     -7.90264119	    -65.95480868	      0.29749749	     -2.55423361	      0.00000000	      0.00000000	      0.00000000	      0.00000000
      4.73000000	     59.77612655	     -1.52684991	     -4.51968631	      0.83171870	      1.06411260	     -0.22852830	     14.48262474	     -8.95238291	      9.15582132	    -65.24110252	     12.48744339	     28.85479329	      0.00000000	     10.11586875	     -4.90204974	     -7.90001559	    -65.96828707	      0.29794943	     -2.55654123	      0.00000000	      0.00000000	      0.00000000	      0.00000000
      4.74000000	     59.77666215	     -1.52503654	     -4.52017407	      0.83172113	      1.06411842	     -0.22853372	     14.48062266	     -8.94908305	      9.14227480	    -65.27806760	     12.48190608	     28.82728611	      0.00000000	     10.11409590	     -4.90372543	     -7.89843615	    -65.98314944	      0.29707693	     -2.55983837	      0.00000000	      0.00000000	      0.00000000	      0.00000000
      4.75000000	     59.77729727	     -1.52360139	     -4.52058263	      0.83172728	      1.06412206	     -0.22853920	     14.47712215	     -8.94488271	      9.12955178	    -65.31568492	     12.47415282	     28.80639265	      0.00000000	     10.11238187	     -4.90575820	     -7.89793590	    -65.99913442	      0.29388075	     -2.56300624	      0.00000000	      0.00000000	      0.00000000	      0.00000000
      4.76000000	     59.77829871	     -1.52252274	     -4.52061891	      0.83173358	      1.06411877	     -0.22854409	     14.47257416	     -8.93968767	      9.11833005	    -65.35398087	     12.46691431	     28.79288159	      0.00000000	     10.11078524	     -4.90797068	     -7.89771233	    -66.01564147	      0.28753303	     -2.56468964	      0.00000000	      0.00000000	      0.00000000	      0.00000000
      4.77000000	     59.77979035	     -1.52180978	     -4.52001373	      0.83173454	      1.06411427	     -0.22854878	     14.46811174	     -8.93429097	      9.10958603	    -65.39295452	     12.46296452	     28.78583176	      0.00000000	     10.10934932	     -4.91078152	     -7.89631414	    -66.03208342	      0.27785021	     -2.56377990	      0.00000000	      0.00000000	      0.00000000	      0.00000000
      4.78000000	     59.78159789	     -1.52133038	     -4.51882714	      0.83172989	      1.06411550	     -0.22855278	     14.46482984	     -8.92978130	      9.10397675	    -65.43263146	     12.46389008	     28.78337267	      0.00000000	     10.10822994	     -4.91465219	     -7.89258674	    -66.04824433	      0.26567024	     -2.55974220	      0.00000000	      0.00000000	      0.00000000	      0.00000000
      4.79000000	     59.78328746	     -1.52098469	     -4.51741133	      0.83172468	      1.06411964	     -0.22855379	     14.46329156	     -8.92671317	      9.10123230	    -65.47307925	     12.46946025	     28.78351929	      0.00000000	     10.10766045	     -4.91924945	     -7.88672465	    -66.06446537	      0.25298703	     -2.55278100	      0.00000000	      0.00000000	      0.00000000	      0.00000000
